<mxfile host="app.diagrams.net" agent="Mozilla/5.0 (Windows NT 10.0; Win64; x64; rv:131.0) Gecko/20100101 Firefox/131.0" version="24.8.3">
  <diagram name="Pagina-1" id="XCqKiDAFy5dWPqQLxlEA">
    <mxGraphModel dx="1050" dy="529" grid="1" gridSize="10" guides="1" tooltips="1" connect="1" arrows="1" fold="1" page="1" pageScale="1" pageWidth="827" pageHeight="1169" math="0" shadow="0">
      <root>
        <mxCell id="0" />
        <mxCell id="1" parent="0" />
        <mxCell id="Xujp3SEeFZc5Y3ZqVXk0-1" value="" style="rounded=0;whiteSpace=wrap;html=1;fillColor=#1ba1e2;fontColor=#ffffff;strokeColor=#006EAF;" vertex="1" parent="1">
          <mxGeometry x="102.33333333333337" y="30" width="440" height="320" as="geometry" />
        </mxCell>
        <mxCell id="Xujp3SEeFZc5Y3ZqVXk0-2" style="edgeStyle=orthogonalEdgeStyle;rounded=0;orthogonalLoop=1;jettySize=auto;html=1;entryX=0;entryY=0.5;entryDx=0;entryDy=0;" edge="1" parent="1" source="Xujp3SEeFZc5Y3ZqVXk0-5" target="Xujp3SEeFZc5Y3ZqVXk0-27">
          <mxGeometry relative="1" as="geometry" />
        </mxCell>
        <mxCell id="Xujp3SEeFZc5Y3ZqVXk0-3" style="edgeStyle=orthogonalEdgeStyle;rounded=0;orthogonalLoop=1;jettySize=auto;html=1;exitX=0;exitY=0.5;exitDx=0;exitDy=0;startArrow=classic;startFill=1;endArrow=none;endFill=0;" edge="1" parent="1" source="Xujp3SEeFZc5Y3ZqVXk0-5">
          <mxGeometry relative="1" as="geometry">
            <mxPoint x="42.33333333333334" y="70" as="targetPoint" />
          </mxGeometry>
        </mxCell>
        <mxCell id="Xujp3SEeFZc5Y3ZqVXk0-4" value="&lt;div style=&quot;font-size: 12px;&quot;&gt;&lt;font style=&quot;font-size: 20px;&quot;&gt;c(t-1)&lt;/font&gt;&lt;/div&gt;" style="edgeLabel;html=1;align=center;verticalAlign=middle;resizable=0;points=[];" vertex="1" connectable="0" parent="Xujp3SEeFZc5Y3ZqVXk0-3">
          <mxGeometry x="0.7398" y="-2" relative="1" as="geometry">
            <mxPoint as="offset" />
          </mxGeometry>
        </mxCell>
        <mxCell id="Xujp3SEeFZc5Y3ZqVXk0-5" value="&lt;font style=&quot;font-size: 20px;&quot;&gt;x&lt;/font&gt;" style="ellipse;whiteSpace=wrap;html=1;aspect=fixed;fillColor=#ffff88;strokeColor=none;verticalAlign=top;" vertex="1" parent="1">
          <mxGeometry x="122.33333333333337" y="50" width="40" height="40" as="geometry" />
        </mxCell>
        <mxCell id="Xujp3SEeFZc5Y3ZqVXk0-6" style="edgeStyle=orthogonalEdgeStyle;rounded=0;orthogonalLoop=1;jettySize=auto;html=1;entryX=0.5;entryY=1;entryDx=0;entryDy=0;" edge="1" parent="1" source="Xujp3SEeFZc5Y3ZqVXk0-9" target="Xujp3SEeFZc5Y3ZqVXk0-5">
          <mxGeometry relative="1" as="geometry" />
        </mxCell>
        <mxCell id="Xujp3SEeFZc5Y3ZqVXk0-7" style="edgeStyle=orthogonalEdgeStyle;rounded=0;orthogonalLoop=1;jettySize=auto;html=1;curved=1;startArrow=classic;startFill=1;endArrow=none;endFill=0;" edge="1" parent="1" source="Xujp3SEeFZc5Y3ZqVXk0-9">
          <mxGeometry relative="1" as="geometry">
            <mxPoint x="42.33333333333334" y="290" as="targetPoint" />
            <Array as="points">
              <mxPoint x="142.33333333333337" y="290" />
            </Array>
          </mxGeometry>
        </mxCell>
        <mxCell id="Xujp3SEeFZc5Y3ZqVXk0-8" style="edgeStyle=orthogonalEdgeStyle;rounded=0;orthogonalLoop=1;jettySize=auto;html=1;curved=1;startArrow=classic;startFill=1;endArrow=none;endFill=0;" edge="1" parent="1" source="Xujp3SEeFZc5Y3ZqVXk0-9">
          <mxGeometry relative="1" as="geometry">
            <mxPoint x="42.33333333333334" y="330" as="targetPoint" />
            <Array as="points">
              <mxPoint x="142.33333333333337" y="330" />
            </Array>
          </mxGeometry>
        </mxCell>
        <mxCell id="Xujp3SEeFZc5Y3ZqVXk0-9" value="&lt;font style=&quot;font-size: 20px;&quot;&gt;σ&lt;/font&gt;" style="rounded=1;whiteSpace=wrap;html=1;fillColor=#cdeb8b;strokeColor=none;" vertex="1" parent="1">
          <mxGeometry x="122.33333333333337" y="210" width="40" height="40" as="geometry" />
        </mxCell>
        <mxCell id="Xujp3SEeFZc5Y3ZqVXk0-10" style="edgeStyle=orthogonalEdgeStyle;rounded=0;orthogonalLoop=1;jettySize=auto;html=1;entryX=0;entryY=0.5;entryDx=0;entryDy=0;curved=1;" edge="1" parent="1" source="Xujp3SEeFZc5Y3ZqVXk0-13" target="Xujp3SEeFZc5Y3ZqVXk0-29">
          <mxGeometry relative="1" as="geometry" />
        </mxCell>
        <mxCell id="Xujp3SEeFZc5Y3ZqVXk0-11" style="edgeStyle=orthogonalEdgeStyle;rounded=0;orthogonalLoop=1;jettySize=auto;html=1;curved=1;startArrow=classic;startFill=1;endArrow=none;endFill=0;" edge="1" parent="1" source="Xujp3SEeFZc5Y3ZqVXk0-13">
          <mxGeometry relative="1" as="geometry">
            <mxPoint x="42.33333333333334" y="290" as="targetPoint" />
            <Array as="points">
              <mxPoint x="222.33333333333337" y="290" />
            </Array>
          </mxGeometry>
        </mxCell>
        <mxCell id="Xujp3SEeFZc5Y3ZqVXk0-12" style="edgeStyle=orthogonalEdgeStyle;rounded=0;orthogonalLoop=1;jettySize=auto;html=1;curved=1;startArrow=classic;startFill=1;endArrow=none;endFill=0;" edge="1" parent="1" source="Xujp3SEeFZc5Y3ZqVXk0-13">
          <mxGeometry relative="1" as="geometry">
            <mxPoint x="42.33333333333334" y="330" as="targetPoint" />
            <Array as="points">
              <mxPoint x="222.33333333333337" y="330" />
            </Array>
          </mxGeometry>
        </mxCell>
        <mxCell id="Xujp3SEeFZc5Y3ZqVXk0-13" value="&lt;font style=&quot;font-size: 20px;&quot;&gt;σ&lt;/font&gt;" style="rounded=1;whiteSpace=wrap;html=1;fillColor=#cdeb8b;strokeColor=none;" vertex="1" parent="1">
          <mxGeometry x="202.33333333333337" y="210" width="40" height="40" as="geometry" />
        </mxCell>
        <mxCell id="Xujp3SEeFZc5Y3ZqVXk0-14" style="edgeStyle=orthogonalEdgeStyle;rounded=0;orthogonalLoop=1;jettySize=auto;html=1;entryX=1;entryY=0.5;entryDx=0;entryDy=0;curved=1;" edge="1" parent="1" source="Xujp3SEeFZc5Y3ZqVXk0-17" target="Xujp3SEeFZc5Y3ZqVXk0-29">
          <mxGeometry relative="1" as="geometry" />
        </mxCell>
        <mxCell id="Xujp3SEeFZc5Y3ZqVXk0-15" style="edgeStyle=orthogonalEdgeStyle;rounded=0;orthogonalLoop=1;jettySize=auto;html=1;curved=1;startArrow=classic;startFill=1;endArrow=none;endFill=0;" edge="1" parent="1" source="Xujp3SEeFZc5Y3ZqVXk0-17">
          <mxGeometry relative="1" as="geometry">
            <mxPoint x="42.33333333333334" y="290" as="targetPoint" />
            <Array as="points">
              <mxPoint x="302.33333333333337" y="290" />
            </Array>
          </mxGeometry>
        </mxCell>
        <mxCell id="Xujp3SEeFZc5Y3ZqVXk0-16" style="edgeStyle=orthogonalEdgeStyle;rounded=0;orthogonalLoop=1;jettySize=auto;html=1;curved=1;startArrow=classic;startFill=1;endArrow=none;endFill=0;" edge="1" parent="1" source="Xujp3SEeFZc5Y3ZqVXk0-17">
          <mxGeometry relative="1" as="geometry">
            <mxPoint x="42.33333333333334" y="330" as="targetPoint" />
            <Array as="points">
              <mxPoint x="302.33333333333337" y="330" />
            </Array>
          </mxGeometry>
        </mxCell>
        <mxCell id="Xujp3SEeFZc5Y3ZqVXk0-17" value="&lt;font style=&quot;font-size: 20px;&quot;&gt;tanh&lt;/font&gt;" style="rounded=1;whiteSpace=wrap;html=1;fillColor=#ffcc99;strokeColor=none;" vertex="1" parent="1">
          <mxGeometry x="282.33333333333337" y="210" width="40" height="40" as="geometry" />
        </mxCell>
        <mxCell id="Xujp3SEeFZc5Y3ZqVXk0-18" style="edgeStyle=orthogonalEdgeStyle;rounded=0;orthogonalLoop=1;jettySize=auto;html=1;curved=1;startArrow=classic;startFill=1;endArrow=none;endFill=0;" edge="1" parent="1" source="Xujp3SEeFZc5Y3ZqVXk0-23">
          <mxGeometry relative="1" as="geometry">
            <mxPoint x="42.33333333333334" y="290" as="targetPoint" />
            <Array as="points">
              <mxPoint x="382.33333333333337" y="290" />
            </Array>
          </mxGeometry>
        </mxCell>
        <mxCell id="Xujp3SEeFZc5Y3ZqVXk0-19" value="&lt;font style=&quot;font-size: 20px;&quot;&gt;h(t-1)&lt;/font&gt;" style="edgeLabel;html=1;align=center;verticalAlign=middle;resizable=0;points=[];" vertex="1" connectable="0" parent="Xujp3SEeFZc5Y3ZqVXk0-18">
          <mxGeometry x="0.9789" y="-1" relative="1" as="geometry">
            <mxPoint as="offset" />
          </mxGeometry>
        </mxCell>
        <mxCell id="Xujp3SEeFZc5Y3ZqVXk0-20" style="edgeStyle=orthogonalEdgeStyle;rounded=0;orthogonalLoop=1;jettySize=auto;html=1;curved=1;startArrow=classic;startFill=1;endArrow=none;endFill=0;" edge="1" parent="1" source="Xujp3SEeFZc5Y3ZqVXk0-23">
          <mxGeometry relative="1" as="geometry">
            <mxPoint x="40" y="330" as="targetPoint" />
            <Array as="points">
              <mxPoint x="382.33333333333337" y="330" />
            </Array>
          </mxGeometry>
        </mxCell>
        <mxCell id="Xujp3SEeFZc5Y3ZqVXk0-21" value="&lt;font style=&quot;font-size: 20px;&quot;&gt;x(t)&lt;/font&gt;" style="edgeLabel;html=1;align=center;verticalAlign=middle;resizable=0;points=[];" vertex="1" connectable="0" parent="Xujp3SEeFZc5Y3ZqVXk0-20">
          <mxGeometry x="0.9727" y="-2" relative="1" as="geometry">
            <mxPoint as="offset" />
          </mxGeometry>
        </mxCell>
        <mxCell id="Xujp3SEeFZc5Y3ZqVXk0-22" style="edgeStyle=orthogonalEdgeStyle;rounded=0;orthogonalLoop=1;jettySize=auto;html=1;entryX=0.5;entryY=1;entryDx=0;entryDy=0;curved=1;" edge="1" parent="1" source="Xujp3SEeFZc5Y3ZqVXk0-23" target="Xujp3SEeFZc5Y3ZqVXk0-33">
          <mxGeometry relative="1" as="geometry" />
        </mxCell>
        <mxCell id="Xujp3SEeFZc5Y3ZqVXk0-23" value="&lt;font style=&quot;font-size: 20px;&quot;&gt;σ&lt;/font&gt;" style="rounded=1;whiteSpace=wrap;html=1;fillColor=#cdeb8b;strokeColor=none;" vertex="1" parent="1">
          <mxGeometry x="362.33333333333337" y="210" width="40" height="40" as="geometry" />
        </mxCell>
        <mxCell id="Xujp3SEeFZc5Y3ZqVXk0-24" style="edgeStyle=orthogonalEdgeStyle;rounded=0;orthogonalLoop=1;jettySize=auto;html=1;entryX=0.5;entryY=0;entryDx=0;entryDy=0;curved=1;" edge="1" parent="1" source="Xujp3SEeFZc5Y3ZqVXk0-27" target="Xujp3SEeFZc5Y3ZqVXk0-31">
          <mxGeometry relative="1" as="geometry" />
        </mxCell>
        <mxCell id="Xujp3SEeFZc5Y3ZqVXk0-25" style="edgeStyle=orthogonalEdgeStyle;rounded=0;orthogonalLoop=1;jettySize=auto;html=1;" edge="1" parent="1" source="Xujp3SEeFZc5Y3ZqVXk0-27">
          <mxGeometry relative="1" as="geometry">
            <mxPoint x="602.3333333333334" y="70" as="targetPoint" />
          </mxGeometry>
        </mxCell>
        <mxCell id="Xujp3SEeFZc5Y3ZqVXk0-26" value="&lt;font style=&quot;font-size: 20px;&quot;&gt;c(t)&lt;/font&gt;" style="edgeLabel;html=1;align=center;verticalAlign=middle;resizable=0;points=[];" vertex="1" connectable="0" parent="Xujp3SEeFZc5Y3ZqVXk0-25">
          <mxGeometry x="0.9358" y="1" relative="1" as="geometry">
            <mxPoint x="30" y="1" as="offset" />
          </mxGeometry>
        </mxCell>
        <mxCell id="Xujp3SEeFZc5Y3ZqVXk0-27" value="&lt;font style=&quot;font-size: 20px;&quot;&gt;+&lt;/font&gt;" style="ellipse;whiteSpace=wrap;html=1;aspect=fixed;strokeColor=none;fillColor=#ffcccc;" vertex="1" parent="1">
          <mxGeometry x="242.33333333333337" y="50" width="40" height="40" as="geometry" />
        </mxCell>
        <mxCell id="Xujp3SEeFZc5Y3ZqVXk0-28" style="edgeStyle=orthogonalEdgeStyle;rounded=0;orthogonalLoop=1;jettySize=auto;html=1;entryX=0.5;entryY=1;entryDx=0;entryDy=0;" edge="1" parent="1" source="Xujp3SEeFZc5Y3ZqVXk0-29" target="Xujp3SEeFZc5Y3ZqVXk0-27">
          <mxGeometry relative="1" as="geometry" />
        </mxCell>
        <mxCell id="Xujp3SEeFZc5Y3ZqVXk0-29" value="&lt;font style=&quot;font-size: 20px;&quot;&gt;x&lt;/font&gt;" style="ellipse;whiteSpace=wrap;html=1;aspect=fixed;strokeColor=none;fillColor=#ffff88;verticalAlign=top;" vertex="1" parent="1">
          <mxGeometry x="242.33333333333337" y="130" width="40" height="40" as="geometry" />
        </mxCell>
        <mxCell id="Xujp3SEeFZc5Y3ZqVXk0-30" style="edgeStyle=orthogonalEdgeStyle;rounded=0;orthogonalLoop=1;jettySize=auto;html=1;entryX=0.5;entryY=0;entryDx=0;entryDy=0;curved=1;" edge="1" parent="1" source="Xujp3SEeFZc5Y3ZqVXk0-31" target="Xujp3SEeFZc5Y3ZqVXk0-33">
          <mxGeometry relative="1" as="geometry" />
        </mxCell>
        <mxCell id="Xujp3SEeFZc5Y3ZqVXk0-31" value="&lt;font style=&quot;font-size: 20px;&quot;&gt;tanh&lt;/font&gt;" style="rounded=1;whiteSpace=wrap;html=1;fillColor=#ffcc99;strokeColor=none;" vertex="1" parent="1">
          <mxGeometry x="362.33333333333337" y="130" width="40" height="40" as="geometry" />
        </mxCell>
        <mxCell id="Xujp3SEeFZc5Y3ZqVXk0-32" style="edgeStyle=orthogonalEdgeStyle;rounded=0;orthogonalLoop=1;jettySize=auto;html=1;curved=1;startArrow=none;startFill=0;endArrow=none;endFill=0;" edge="1" parent="1" source="Xujp3SEeFZc5Y3ZqVXk0-33">
          <mxGeometry relative="1" as="geometry">
            <mxPoint x="542.3333333333334" y="290" as="targetPoint" />
            <Array as="points">
              <mxPoint x="502.33333333333337" y="190" />
              <mxPoint x="502.33333333333337" y="290" />
            </Array>
          </mxGeometry>
        </mxCell>
        <mxCell id="Xujp3SEeFZc5Y3ZqVXk0-33" value="&lt;font style=&quot;font-size: 20px;&quot;&gt;x&lt;/font&gt;" style="ellipse;whiteSpace=wrap;html=1;aspect=fixed;fillColor=#ffff88;strokeColor=none;verticalAlign=top;" vertex="1" parent="1">
          <mxGeometry x="442.33333333333337" y="170" width="40" height="40" as="geometry" />
        </mxCell>
        <mxCell id="Xujp3SEeFZc5Y3ZqVXk0-34" value="" style="endArrow=classic;html=1;rounded=0;" edge="1" parent="1">
          <mxGeometry width="50" height="50" relative="1" as="geometry">
            <mxPoint x="542.3333333333334" y="290" as="sourcePoint" />
            <mxPoint x="602.3333333333334" y="290" as="targetPoint" />
          </mxGeometry>
        </mxCell>
        <mxCell id="Xujp3SEeFZc5Y3ZqVXk0-35" value="&lt;font style=&quot;font-size: 20px;&quot;&gt;h(t)&lt;/font&gt;" style="edgeLabel;html=1;align=center;verticalAlign=middle;resizable=0;points=[];" vertex="1" connectable="0" parent="Xujp3SEeFZc5Y3ZqVXk0-34">
          <mxGeometry x="0.7333" y="-3" relative="1" as="geometry">
            <mxPoint x="28" y="-3" as="offset" />
          </mxGeometry>
        </mxCell>
      </root>
    </mxGraphModel>
  </diagram>
</mxfile>
